<?xml version="1.0" encoding="utf-8"?>
<!-- Generator: Adobe Illustrator 27.9.0, SVG Export Plug-In . SVG Version: 6.00 Build 0)  -->
<svg version="1.1" id="_レイヤー_2" xmlns="http://www.w3.org/2000/svg" xmlns:xlink="http://www.w3.org/1999/xlink" x="0px"
	 y="0px" viewBox="0 0 203.7 203.7" style="enable-background:new 0 0 203.7 203.7;" xml:space="preserve">
<style type="text/css">
	.st0{fill:none;stroke:#333333;stroke-width:6;stroke-miterlimit:10;}
	.st1{fill:none;stroke:#333333;stroke-width:6;stroke-linecap:round;stroke-linejoin:round;}
</style>
<g id="_レイヤー_1-2">
	<circle class="st0" cx="101.9" cy="101.9" r="99.9"/>
	<path class="st0" d="M37.8,178.1c2.5-2.2,5.5-3.2,7.1-6.8c1-2.1,1-4.1,1-4.9c-0.1-6.9-6.7-8.7-7-15.9c0-0.8-0.1-3.1,1-5.4
		c2.3-5,7.2-4.7,8.8-9.1c0.8-2.1,0.3-4.1-0.2-6.1c-1.3-5.5-4.9-6.3-5.8-11.5c-0.1-0.8-0.5-3.1,0.2-5.5c1.4-4.6,5.6-4.9,9-10.8
		c1.1-1.9,1.6-2.8,1.6-4c-0.1-3.8-4.8-5.2-5.8-10.2c-0.3-1.6-0.2-2.9,0-3.9c0.9-6,5.4-8.2,8.7-11.7c0,0,0.1-0.1,0.1-0.1
		c0.4,0.1-0.6,4.3-0.6,8.8c0,3.2,0,6,1.6,8.7c1.8,3,3.5,2.7,4.8,5.5c1.8,3.8,0.2,7.9,0.2,8.1c-1.7,4.2-5.6,4.3-8,9.5
		c-0.7,1.4-1.6,3.5-1.3,6c0.6,5.1,5.9,5.7,8,11.9c0.3,1,1.2,3.7,0.6,6.8c-1.3,7-8.3,8.1-9.1,14.7c-0.3,2.9,0.6,5.3,0.9,5.9
		c1.2,2.8,2.8,3.3,5.3,6.9c1.5,2.2,2.3,3.4,2.7,5.1c1.4,6.6-6,13.8-6.9,14.6c-0.6,0.6-1.7,1.6-3,2.5"/>
	<path class="st0" d="M29.1,167.1c1.2-1,2.6-2.6,2.8-4.6c0.2-2.9-2.7-4-3.7-8.1c-0.2-0.7-1.1-4.3,0.5-7.5c2.1-3.9,6.3-3.3,7.8-7.1
		c0.9-2.2,0.3-4.4,0-5.5c-1.4-5.3-6.4-5.8-7.1-10.4c-0.4-2.2,0.4-4.1,1.2-5.9c2.2-5.2,5.9-5.4,7.7-10.3c0.3-0.8,1-2.9,0.7-5.5
		c-0.6-4.7-4.7-5.8-7.1-12.2c-0.7-2.1-1.1-3.1-0.9-4.2c0.7-3.8,5.6-4.3,7.5-9.1C39,75,39,73.7,39,72.7c0.2-6.1-3.9-9-6.6-13
		c0,0-0.1-0.1-0.1-0.1c-0.4,0-0.1,4.3-0.9,8.7c-0.6,3.2-1.1,5.9-3.1,8.3c-2.2,2.7-3.9,2-5.7,4.6c-2.4,3.4-1.6,7.8-1.5,8
		c0.9,4.5,4.8,5.2,6.3,10.7c0.4,1.5,1,3.7,0.3,6.1c-1.5,5-6.8,4.6-9.9,10.4c-0.5,0.9-1.8,3.4-1.8,6.6c0.1,7.1,6.8,9.4,6.5,16
		c-0.1,2.7-1.4,4.8-1.9,5.7c-2,3.5-5,5.2-6.4,5.9"/>
	<path class="st0" d="M11.2,59.1c5.9-3.4,13.8-6.7,22.9-6c11.4,0.9,14.2,7.2,25.6,7.3c11.3,0.2,12.1-6,23.7-6
		c12.4,0,14.1,7,26.1,6.4c10.3-0.5,10.4-5.6,20.7-6c11.9-0.4,14.4,6.4,25.1,5c8.2-1,9.3-5.3,17.8-6.4c6.9-0.9,13.1,1,17.8,3.2"/>
	<path class="st0" d="M17.8,47.9c4.8-1.9,10.3-3.2,16.4-2.8c11.4,0.9,14.2,7.2,25.6,7.3c11.3,0.2,12.1-6,23.7-6
		c12.4,0,14.1,7,26.1,6.4c10.3-0.5,10.4-5.6,20.7-6c11.9-0.4,14.4,6.4,25.1,5c8.2-1,9.3-5.3,17.8-6.4c4.3-0.6,8.3,0,11.8,1"/>
	<path class="st1" d="M164.4,94.1"/>
	<path class="st1" d="M76.3,94.1"/>
	<path class="st1" d="M98,138.5c0.6,13.8,27.8,27,51,23c4.2-0.7,23.5-3.9,28-18.8c1-3.2,0.9-6,0.9-7.5c0-15-22.3-27.8-40.9-27.4
		c-15.7,0.3-31.9,10.2-37.7,24.7C98,136,98,137.7,98,138.5L98,138.5z"/>
	<path class="st1" d="M161.1,113.9c0.4-1.8,1.1-6.2-0.3-11.4c-1.8-6.6-6-9.9-7.2-10.8c-5.1-3.8-12.6-3-16.5,1.3
		c-3.1,3.4-3.2,8.3-6.2,8.9c-1,0.2-1.3-0.3-4.2-1.3c-3-1-5.7-1.6-6.5-1.7c-4.4-0.6-10.1,2.6-13.3,8.3c-4,7.3-2.1,15.1-1.9,16.2"/>
	<ellipse class="st1" cx="162.4" cy="134.1" rx="4.8" ry="5.7"/>
	<circle class="st1" cx="177.9" cy="84.4" r="4.8"/>
	<circle class="st1" cx="88.6" cy="68.6" r="4.8"/>
	<circle class="st1" cx="98" cy="89.2" r="4.8"/>
	<path class="st1" d="M99.5,143.7c-1.5-0.3-2.8,0.4-4.5,1.2c-2.4,1.2-3.1,2.3-4.7,3.4c-2.4,1.7-7.2,3.6-10.4,1.2
		c-2.9-2.2-3.4-7.2-3.7-10c-0.2-2.1-0.1-3.8,0-4.6c0.5-4.4,2.1-7.3,2.4-7.8c1-1.7,1.6-2.8,2.9-3.4c2-1.1,4.1-0.1,7.1,1.2
		c2.5,1.1,3.1,1.9,5.6,3.2c2.6,1.3,4.8,2,6.2,2.4"/>
	<path class="st1" d="M127.9,162.3c-1.2,1.1-4.1,3.6-8.4,4.2c-3.6,0.5-6.4-0.6-7.8-1.3c-1.2-0.6-2.8-1.6-4-3.5
		c-2.4-4-1.3-9.4-0.9-11.8c0.8-5.3,0.8-13.3-3-25"/>
	<path class="st1" d="M151,109.9c-3.1,12.6-4,22.9-4.1,30.1c-0.2,10.2,0.7,21.8,0.6,21.8c0,0-0.1-1.5-0.2-3.6
		c-0.2-6.4,0.3-7.9-0.6-8.8c-0.8-0.9-2.5-0.5-5.7,0.2c-3.1,0.7-3.6,1.4-5.3,1.2c-0.4,0-2.6-0.3-4.5-2.2c-2.9-3-3.8-8.9-1.8-12.7
		c1.6-3.1,4.6-3.8,7.3-4.5c4.7-1.1,8.6,0.1,10.6,0.9"/>
	<path class="st1" d="M118.6,112.6c-1.1,3.8-2.1,9.1-0.8,14.9c0.8,3.6,2,5.2,2.9,7.8c1.4,4.2,1.8,10.9-2.4,21.3"/>
	<path class="st1" d="M133.8,150.3c-0.9,4.7-2.1,8.5-3.1,11.1"/>
	<path class="st1" d="M130.7,108.6c1.8,5-7.7-2.3,4.5,22.1"/>
</g>
</svg>
