<?xml version="1.0" encoding="utf-8"?>
<!-- Generator: Adobe Illustrator 27.9.0, SVG Export Plug-In . SVG Version: 6.00 Build 0)  -->
<svg version="1.1" id="_レイヤー_2" xmlns="http://www.w3.org/2000/svg" xmlns:xlink="http://www.w3.org/1999/xlink" x="0px"
	 y="0px" viewBox="0 0 129 120" style="enable-background:new 0 0 129 120;" xml:space="preserve">
<style type="text/css">
	.st0{fill:none;stroke:#000000;stroke-width:2;stroke-miterlimit:10;}
</style>
<g id="_レイヤー_1-2">
	<rect x="46" class="st0" width="42" height="14"/>
	<polygon class="st0" points="55,19 73.4,19 93.6,50 35.3,50 	"/>
	<polygon class="st0" points="78.4,19 88,19 129,50 98.6,50 	"/>
	<polygon class="st0" points="50.6,19 41,19 0,50 30.4,50 	"/>
	<rect y="55" class="st0" width="63" height="14"/>
	<rect x="66" y="55" class="st0" width="63" height="14"/>
	<polyline class="st0" points="50.6,86 0,86 0,72 63,72 63,80.1 	"/>
	<polyline class="st0" points="66,80.1 66,72 129,72 129,86 78.4,86 	"/>
	<polyline class="st0" points="50.6,103 0,103 0,89 50.6,89 	"/>
	<polyline class="st0" points="78.4,89 129,89 129,103 78.4,103 	"/>
	<polyline class="st0" points="50.6,120 0,120 0,106 50.6,106 	"/>
	<polyline class="st0" points="78.4,106 129,106 129,120 78.4,120 	"/>
	<rect x="50.6" y="80.1" class="st0" width="27.8" height="39.9"/>
</g>
</svg>
