<?xml version="1.0" encoding="UTF-8"?>
<svg id="_レイヤー_2" data-name=" レイヤー 2" xmlns="http://www.w3.org/2000/svg" viewBox="0 0 188.63 197">
  <defs>
    <style>
      .cls-1 {
        stroke-width: 4px;
      }

      .cls-1, .cls-2, .cls-3, .cls-4 {
        stroke: #000;
        stroke-miterlimit: 10;
      }

      .cls-1, .cls-3 {
        fill: none;
      }

      .cls-5 {
        stroke-width: 0px;
      }

      .cls-2 {
        fill: #fff3f3;
      }

      .cls-2, .cls-3, .cls-4 {
        stroke-width: 2px;
      }

      .cls-4 {
        fill: #fff;
      }
    </style>
  </defs>
  <path class="cls-1" d="m157.93,95.71c2.41-3.94,4.46-8.29,6.66-13.6"/>
  <path class="cls-1" d="m164.7,22.5c-1.64,3.82-2.86,9.57-5.25,17.12-.18.56-3.05,7.85-8.78,22.45-5.21,13.26-6.08,15.51-8.67,18.71-3.22,3.96-5.82,5.63-7.58,7.87"/>
  <path class="cls-1" d="m91.51,44.08c-.3-.28-.59-.57-.9-.86-10.02-9.6-21.32-17.93-30.92-27.93-4.69-4.89-12.14-13.01-18.25-11.9-2.14.39-4.58,2-6.22,3.95-1.97,2.33-2.76,5.08-2.85,6.75-.34,6.12,8.03,11.01,21.14,22.37.4.35,4.23,4.04,11.68,11.26"/>
  <g>
    <path class="cls-1" d="m92.73,135.54c4.25,2.64,8.71,4.93,13.11,6.73,19.05,7.76,51.71,12.03,64.71-3.66,4.78-5.76,6.44-13.67,4.84-21.35"/>
    <path class="cls-1" d="m159.27,96.55c-10.13-5.38-22.96-6.35-34.79-7.25-.56-.04-1.3-.1-2.2-.16"/>
  </g>
  <path class="cls-1" d="m35.09,95.33c1.7,5.28,4.66,10.2,8.59,13.96s8.72,6.76,13.99,8.68c4.93,1.8,10.61,1.51,16.24,1.57,5.25.06,10.86.51,16.26-1.13s10.04-4.65,14.3-7.59c4.61-3.18,9.18-6.5,12.18-10.72,3.22-4.53,4.25-10.1,5.24-15.26,1.02-5.25,1.73-10.73.03-15.99s-5.37-9.5-9.31-13.26-8.26-6.93-13.53-8.86c-4.93-1.8-10.42-2.18-16.05-2.24-5.25-.06-10.67.3-16.06,1.94-10.96,3.34-17.8,9.58-19.94,11.76-.59.6-3.87-.26-4.45.4-.71.81,1.06,2.91.39,3.8-.05.06-1.81-1.95-2.76-.59-.35.5,1.71,3.47,1.36,3.96-.4.57-4.67,6.37-6.38,14-1.12,4.98-1.66,10.7-.09,15.57Z"/>
  <path class="cls-1" d="m72.97,128.48c-1.93,4.16-1.5,4.69-3.41,9.7-1.48,3.88-4.27,10.24-9.1,16.81-1.27,1.74-3.22,4.38-5.94,7.02-7.88,7.63-17.77,10.86-29.01,14.4-3.83,1.21-7.13,2.1-9.78,2.97-3.14-3.91-7.97-5.41-11.11-3.33-3.33,2.2-3.51,7.58-.41,12.01,2.45,3.5,6.22,5.35,9.33,4.9.46.3.96.6,1.51.86,7.21,3.45,21.17-1.82,23.08-2.56,5.65-2.18,15.38-6.03,26.57-14.71,11.42-8.87,17.39-17.38,18.99-19.73,2.16-3.18,5.74-8.95,7.83-16.87,1.81-6.83,1.09-9.88.82-10.9-1.57-5.77-7.02-11.72-11.53-10.96-3.3.56-5.16,4.57-7.86,10.37Z"/>
  <path class="cls-1" d="m165.42,61.42c-.08,16.63-.07,19.45-1.39,23.99-2.38,8.19-5.34,10.55-4.85,16.43.77,9.13,9.14,18.2,15.01,16.99,3.59-.74,5.7-5.22,7.35-9.71,5.1-13.81,5.11-24.94,5.08-47.14-.02-12.9-1.85-25.8-1.28-38.69.28-6.3.99-16.55-4.12-19.8-1.79-1.14-4.68-1.66-7.26-1.44-3.09.26-5.66,1.57-6.94,2.61-4.72,3.83-2.42,12.54-1.52,28.62.04.68,0,9.83-.09,28.14Z"/>
  <path class="cls-1" d="m116.45,79.86c-.09-.57.26-3.79-1.4-7.62-.91-2.12-2.68-4.26-4.38-6.56-1.46-1.96-3.03-4.18-5.21-5.89-1.93-1.51-4.3-2.81-6.89-3.86-2.4-.97-4.91-1.16-7.23-1.46-2.55-.33-5-.41-7.32-.19-2.63.25-5.26.1-7.4.7-2.93.83-5.06,2.66-6.65,3.32-1.74.72-4.74,1.05-7.54,2.73-2.07,1.24-4.12,3.15-6.16,5.15-1.77,1.74-2.81,4.26-4.2,6.72-1.11,1.96-2.79,4.02-3.57,6.52s-.5,4.99-.57,7.39c-.08,2.63.02,5,1.22,7.05.64,1.1,1.17,2.73,3.16,6.13,2.12,3.63,3.12,4.23,4.57,5.64,1.18,1.15,2.81,3.48,6.51,4.22,1.43.27,3.34.14,5.48.28,1.64.11,3.49.42,5.46.31,3.02-.17,5.54-1.5,8.02-2.12,2.79-.7,5.55-.86,8.08-1.77,2.11-.75,4.05-1.61,5.95-2.4,2-.83,3.64-2.2,5.45-3.34,1.94-1.22,3.81-2.34,5.31-3.84,1.62-1.61,3.28-3.15,4.46-4.91,1.29-1.93,2.73-3.77,3.58-5.66,1.01-2.25.76-4.73,1.29-6.54Z"/>
  <g>
    <path class="cls-5" d="m116.01,75.93c-.31-.38-.67-.72-1.21-1.22-.98-.92-1.69-1.34-3.22-2.16-.22-.12-.41-.22-.54-.28h-.02c-.73-.45-1.34-1.06-1.75-1.79-.17-.3-.37-.63-.6-.96-.32-.48-.82-1.15-1.51-1.89-.19-.2-.4-.41-.63-.63-.79-.75-1.82-1.23-2.91-1.4h0c-.72-.11-1.45-.09-2.15.1-.73.19-1.63.53-2.52,1.14-.86.59-1.44,1.24-1.81,1.74-.09.14-.18.27-.27.41-.27.49-.56,1.16-.69,1.98-.08.5-.2,1.36.16,2.37.13.36.36.99.99,1.57.74.68,1.57.85,2.63,1.07,1.15.23,2.27.19,2.67.18.74-.02,1.29-.09,2.08.11.58.14.98.35,1.09.41.46.24.77.52,1.09.79.29.25.5.47.64.61.08.08.2.21.67.75.2.23.34.36.5.58.29.4.69.89,1.21,1.38.48.46,1.18,1.01,2.12,1.52,1.18.63,2.36,1.27,3.4.83.33-.14.54-.34.78-.57.82-.8,1.03-1.77,1.1-2.12.46-2.23-1.01-4.13-1.33-4.51Z"/>
    <path class="cls-4" d="m98.54,71.29c0,1.66,1.77,3.01,3.96,3.01s3.96-1.35,3.96-3.01-1.77-3.01-3.96-3.01-3.96,1.35-3.96,3.01Z"/>
    <ellipse class="cls-1" cx="85.24" cy="81.22" rx="8.94" ry="6.39" transform="translate(-19.07 26.61) rotate(-15.98)"/>
    <path class="cls-3" d="m71.27,95.06c.47,1.46,8.35.36,17.6-2.46s16.36-6.29,15.89-7.75c-.47-1.46-7.31,2.48-16.56,5.29-9.25,2.82-17.41,3.45-16.94,4.91Z"/>
    <path class="cls-5" d="m53.96,99.91c.02-.62.11-1.23.25-2.14.26-1.66.62-2.6,1.46-4.51.12-.28.23-.51.3-.67v-.02c.38-.97.5-2.04.36-3.11-.06-.44-.11-.92-.14-1.44-.04-.73-.07-1.79.05-3.06.03-.34.08-.71.14-1.11.2-1.35.81-2.56,1.72-3.48h0c.59-.6,1.29-1.08,2.08-1.36.82-.29,1.9-.53,3.17-.48,1.23.05,2.24.36,2.94.64.18.09.36.17.54.26.61.34,1.36.87,2.07,1.67.43.49,1.17,1.33,1.55,2.66.14.47.37,1.31.2,2.36-.2,1.23-.85,1.98-1.7,2.94-.9,1.03-1.98,1.75-2.37,2.01-.7.48-1.26.78-1.87,1.54-.44.55-.66,1.04-.72,1.19-.25.57-.35,1.08-.45,1.59-.09.47-.13.85-.16,1.1-.01.14-.04.36-.09,1.26-.02.39-.06.62-.05.97.02.64,0,1.42-.14,2.31-.13.82-.37,1.89-.89,3.07-.65,1.49-1.29,2.97-2.58,3.2-.41.08-.76,0-1.14-.09-1.34-.3-2.24-1.2-2.55-1.53-2.03-2.08-2.02-5.13-2-5.75Z"/>
    <ellipse class="cls-2" cx="63.67" cy="84.7" rx="3.93" ry="3.04" transform="translate(-34.13 43.92) rotate(-30.43)"/>
  </g>
</svg>